<?xml version="1.0" encoding="utf-8"?>
<svg viewBox="0 0 7 7" xmlns="http://www.w3.org/2000/svg">
  <path d="M 1 1 L 2 1 L 2 6 L 1 6 L 1 1 Z" style="stroke-width: 0px; fill: rgb(255, 153, 2); stroke: rgb(246, 246, 246); transform-origin: 2.274px 2.758px;"/>
  <path d="M 5 1 L 6 1 L 6 6 L 5 6 L 5 1 Z" style="stroke-width: 0px; fill: rgb(255, 153, 2); stroke: rgb(246, 246, 246); transform-origin: 2.274px 2.758px;"/>
  <path d="M 2 2 L 3 2 L 3 3 L 2 3 L 2 2 Z" style="stroke-width: 0px; fill: rgb(255, 153, 2); stroke: rgb(246, 246, 246); transform-origin: 2.274px 2.758px;"/>
  <path d="M 2 4 L 3 4 L 3 5 L 2 5 L 2 4 Z" style="stroke-width: 0px; fill: rgb(255, 153, 2); stroke: rgb(246, 246, 246); transform-origin: 2.274px 2.758px;"/>
  <path d="M 4 2 L 5 2 L 5 3 L 4 3 L 4 2 Z" style="stroke-width: 0px; fill: rgb(255, 153, 2); stroke: rgb(246, 246, 246); transform-origin: 2.274px 2.758px;"/>
  <path d="M 4 4 L 5 4 L 5 5 L 4 5 L 4 4 Z" style="stroke-width: 0px; fill: rgb(255, 153, 2); stroke: rgb(246, 246, 246); transform-origin: 2.274px 2.758px;"/>
  <path d="M 3 3 L 4 3 L 4 6 L 3 6 L 3 3 Z" style="stroke-width: 0px; fill: rgb(255, 153, 2); stroke: rgb(246, 246, 246); transform-origin: 2.274px 2.758px;"/>
</svg>